/* XPM */
static char *lamps_img[]={
"45 30 104 2",
"Qt c None",
".h c #000000",
".4 c #00a128",
".y c #070604",
"#p c #099c27",
".t c #0c0904",
".x c #0e0a03",
".g c #0f0b03",
".f c #120d04",
".v c #151005",
".l c #171206",
".j c #1a1a19",
"#i c #1b1605",
".m c #1b1b1b",
".r c #1f1f1f",
".C c #211a0a",
".B c #221b0b",
".q c #231c0b",
".e c #231d0e",
".i c #232323",
".N c #25221b",
"#y c #269029",
".Z c #28261f",
".G c #2b240f",
".p c #373714",
"#d c #3a892c",
".u c #3b2e15",
".A c #3c3c3c",
".o c #3d2e23",
"#L c #42390a",
".z c #434343",
".D c #453b0d",
".k c #463a1d",
".F c #473d0c",
".H c #483f1d",
".E c #493f0e",
"#B c #4a3f0f",
".9 c #4b400d",
"#n c #4b8631",
".d c #4d4d4d",
"#H c #4e8423",
".M c #4f4311",
"#x c #558524",
"#z c #598336",
"#b c #598724",
".3 c #5b8724",
".R c #5c8724",
"#m c #5d5020",
"#e c #5e4f20",
".S c #638925",
".6 c #645d1a",
"#o c #64823b",
".s c #656565",
"#D c #66823c",
".Y c #685a19",
".5 c #698b25",
".Q c #6d6523",
".n c #707070",
".c c #717171",
".I c #726223",
".T c #787426",
".b c #787878",
".# c #7e7e7e",
".w c #7f7f7f",
".L c #827026",
"#c c #85844f",
"#E c #877526",
"#q c #938029",
".7 c #9e892b",
".U c #9f8b2b",
".J c #a18c2b",
".K c #ab952d",
".X c #b49d2f",
".a c #b4b0a5",
"#I c #b7a030",
"#K c #c0a732",
"#f c #c1a832",
"#G c #c2581c",
"#u c #c65f1e",
"#F c #c7ae33",
"#r c #c8af33",
"#. c #ca661f",
".0 c #ca671f",
".V c #cab034",
".O c #cb681f",
".P c #ce6f21",
"#J c #d0b635",
".W c #d1b735",
".2 c #d27522",
"#t c #d2b83b",
"#h c #d6bf56",
"#s c #d7c05a",
"## c #de7169",
".8 c #e0cd7d",
"#k c #e35b53",
"#C c #e35d55",
"#g c #e3d389",
"#w c #e4554d",
"#j c #e64d44",
"#a c #e84339",
"#A c #e8da96",
"#v c #e9372c",
".1 c #eb210d",
"#l c #eb2718",
"QtQtQtQtQt.#.#.a.bQtQtQtQtQtQtQtQtQtQtQt.#.#.a.bQtQtQtQtQtQtQtQtQtQtQt.#.#.a.bQtQtQtQtQtQt",
"QtQtQt.c.d.e.f.g.h.e.d.cQtQtQtQtQtQt.c.d.e.f.g.h.e.d.cQtQtQtQtQtQt.c.d.e.f.g.h.e.d.cQtQtQt",
"QtQtQt.i.j.k.k.k.k.k.l.m.nQtQtQtQt.c.i.j.o.o.o.o.o.l.m.nQtQtQtQt.c.i.j.p.p.p.p.p.l.m.nQtQt",
"QtQt.i.j.k.k.k.k.k.k.k.q.rQtQtQtQt.i.j.o.o.o.o.o.o.o.o.rQtQtQtQt.i.j.p.p.k.p.p.p.p.q.rQtQt",
"Qt.s.j.k.k.k.k.k.k.k.k.k.h.sQtQt.s.j.o.o.k.k.o.o.o.o.o.h.sQtQt.s.j.p.p.k.k.k.p.p.p.p.h.sQt",
"Qt.h.k.k.k.k.k.k.k.k.k.k.k.tQtQt.h.o.o.k.k.u.o.o.o.o.o.o.tQtQt.h.p.p.p.k.k.k.p.p.p.p.p.tQt",
"Qt.v.k.k.k.k.k.k.k.k.k.k.k.hQtQt.v.o.o.k.u.o.o.o.o.o.o.o.hQtQt.v.p.p.p.k.k.k.p.p.p.p.p.hQt",
".w.x.k.k.k.k.k.k.k.k.k.k.k.f.#.w.x.o.o.k.u.o.o.o.o.o.o.o.f.#.w.x.p.p.p.k.k.p.p.p.p.p.p.f.#",
".w.h.k.k.k.k.k.k.k.k.k.k.k.fQt.w.h.o.o.k.u.o.o.o.o.o.o.o.fQt.w.h.p.p.p.p.p.p.p.p.p.p.p.fQt",
"Qt.y.k.k.k.k.k.k.k.k.k.k.k.hQtQt.y.o.o.o.o.o.o.o.o.o.o.o.hQtQt.y.p.p.p.p.p.p.p.p.p.p.p.hQt",
"QtQt.h.k.k.k.k.k.k.k.k.k.hQtQtQtQt.h.o.o.o.o.o.o.o.o.o.hQtQtQtQt.h.p.p.p.p.p.p.p.p.p.hQtQt",
"QtQt.z.h.k.k.k.k.k.k.k.h.hQtQtQtQt.z.h.o.o.o.o.o.o.o.h.hQtQtQtQt.z.h.p.p.p.p.p.p.p.h.hQtQt",
"QtQt.w.A.l.k.k.k.k.k.h.rQtQtQtQtQt.w.A.l.o.o.o.o.o.h.rQtQtQtQtQt.w.A.l.p.p.p.p.p.h.rQtQtQt",
"QtQtQtQtQt.h.B.h.h.CQtQtQtQtQtQtQtQtQtQt.h.B.h.h.CQtQtQtQtQtQtQtQtQtQt.h.B.h.h.CQtQtQtQtQt",
"QtQtQtQtQtQtQtQtQtQtQtQtQtQtQtQtQtQtQtQtQtQtQtQtQtQtQtQtQtQtQtQtQtQtQtQtQtQtQtQtQtQtQtQtQt",
"QtQtQtQtQt.#.#.a.bQtQtQtQtQtQtQtQtQtQtQt.#.#.a.bQtQtQtQtQtQtQtQtQtQtQt.#.#.a.bQtQtQtQtQtQt",
"QtQtQt.c.d.e.D.E.F.G.d.cQtQtQtQtQtQt.c.d.e.D.E.F.G.d.cQtQtQtQtQtQt.c.d.e.D.E.F.G.d.cQtQtQt",
"QtQt.c.i.H.I.J.K.K.L.M.N.nQtQtQtQt.c.i.H.I.O.P.P.L.M.N.nQtQtQtQt.c.i.H.Q.R.S.S.T.M.N.nQtQt",
"QtQt.i.H.U.V.W.W.W.W.X.Y.ZQtQtQtQt.i.H.0.1.1.1.1.1.2.Y.ZQtQtQtQt.i.H.3.4.4.4.4.4.5.6.ZQtQt",
"Qt.s.j.7.V.W.8.8.W.W.W.X.9.sQtQt.s.j#..1.1###a.1.1.1.2.9.sQtQt.s.j#b.4.4#c#d.4.4.4.5.9.sQt",
"Qt.h#e#f.W#g#h.W.W.W.W.W.L#iQtQt.h#e.1.1#j#k#l.1.1.1.1.L#iQtQt.h#m.4.4#n#o#p.4.4.4.4.T#iQt",
"Qt.v#q#r#s#h#t.W.W.W.W.W.K.FQtQt.v#u.1#v#w#j.1.1.1.1.1.P.FQtQt.v#x.4#y#z#n.4.4.4.4.4.S.FQt",
".w.x#q#r#A.W.W.W.W.W.W.W.K#BQt.w.x#u.1#C#C.1.1.1.1.1.1.P#B.#.w.x#x.4#D#D.4.4.4.4.4.4.S#B.#",
".w.h#E#F.W.W.W.W.W.W.W.W.J.DQt.w.h#G.1.1.1.1.1.1.1.1.1.O.DQt.w.h#H.4.4.4.4.4.4.4.4.4.R.DQt",
"Qt.y.k#I#J.W.W.W.W.W.W.V.I.hQtQt.y.k.1.1.1.1.1.1.1.1.1.I.hQtQt.y.k.4.4.4.4.4.4.4.4.4.Q.hQt",
"QtQt.h#E#K#J.W.W.W.W.V.U#LQtQtQtQt.h#G.1.1.1.1.1.1.1.0#LQtQtQtQt.h#H.4.4.4.4.4.4.4.3#LQtQt",
"QtQt.z.h#E#I#F#r#r#f.7#L.hQtQtQtQt.z.h#G.1.1.1.1.1#.#L.hQtQtQtQt.z.h#H.4.4.4.4.4#b#L.hQtQt",
"QtQtQt.A.l.k#E#q#q#e.h.rQtQtQtQtQt.w.A.l.k#G#u#u#e.h.rQtQtQtQtQt.w.A.l.k#H#x#x#m.h.rQtQtQt",
"QtQtQtQtQt.h.B.h.h.CQtQtQtQtQtQtQtQtQtQt.h.B.h.h.CQtQtQtQtQtQtQtQtQtQt.h.B.h.h.CQtQtQtQtQt",
"QtQtQtQtQtQtQtQtQtQtQtQtQtQtQtQtQtQtQtQtQtQtQtQtQtQtQtQtQtQtQtQtQtQtQtQtQtQtQtQtQtQtQtQtQt"};
