/* XPM */
static char *toggle_img[]={
"46 32 430 2",
"Qt c None",
"ey c None",
"bs c #5b8b54",
"#C c #7d534e",
".F c #837367",
"c# c #847e64",
".f c #4c3a2b",
"bS c #170e09",
"aH c #382617",
".y c #413127",
"dw c #93836f",
".# c #ffd1b1",
"dF c #251b13",
"dN c #2c2118",
"eG c #322921",
"#a c #362c21",
"aG c #3d2d21",
".s c #ecbea1",
"ez c #251b14",
"dO c #2d241a",
"#v c #32261e",
"#R c #352621",
"ac c #382d25",
"bz c #382e24",
"az c #3c332b",
"bf c #3d3128",
"aX c #40342a",
"cB c #43382f",
"dV c #564e48",
"er c #271d16",
"ek c #2c211b",
"d2 c #2d221a",
"d8 c #2d221b",
"dW c #2d231a",
"ed c #2e231d",
".S c #382b23",
"eR c #5a5342",
"eM c #c1ad8e",
".l c #6a644a",
"#7 c #b4a784",
"#Y c #5c4544",
"ca c #675a4b",
"bl c #63593e",
"cg c #937f60",
"#X c #624c4b",
"aj c #442e28",
"dx c #685a4d",
"eq c #b6a789",
"d1 c #d4c3a4",
"eN c #483c34",
".E c #706751",
"eF c #b4a185",
"ex c #bba992",
"ai c #493530",
"ej c #b3a881",
"cX c #3f3932",
".r c #554c39",
"bY c #99876c",
"eP c #302822",
".L c #564b38",
"#L c #9a7866",
"#p c #9b7b66",
"bt c #ad917b",
"ec c #b1a17d",
"ba c #b99980",
"aR c #bd9d88",
"eQ c #4d4637",
"#g c #736250",
".6 c #9b7f69",
"bF c #9b8c72",
"#8 c #a78b74",
"d7 c #b4a086",
"at c #b59985",
"eO c #4d3d37",
"#B c #544b37",
"#W c #55493e",
"ah c #5c4b42",
"aF c #64544a",
"a2 c #8a7967",
"bM c #977d68",
"bk c #978b73",
".M c #9c7a69",
".Y c #766956",
"b# c #8b836b",
"b5 c #7b624f",
"cH c #624c3f",
"cm c #594334",
"cI c #705949",
"c3 c #73584a",
"cn c #755c49",
".Z c #685b52",
"as c #8b775e",
"b4 c #473225",
"bL c #503f32",
"aQ c #8b7b65",
"a3 c #372f2b",
"#h c #3e312b",
".5 c #584935",
"#o c #5c4a39",
"ct c #90816e",
"dE c #534842",
"dU c #60564b",
"cA c #4e4136",
"cu c #91816e",
"dM c #453b37",
"dm c #92826e",
"cW c #423835",
"#K c #736154",
"dn c #8a7a68",
".k c #3a3625",
".m c #655d4a",
".g c #463628",
".G c #625a48",
"eL c #585140",
"br c #8a7866",
".D c #393326",
"db c #514a44",
".e c #393626",
".x c #3a3527",
"bG c #645546",
".a c #34281d",
"ep c #494235",
"ew c #4c4339",
".t c #32271c",
"ei c #4a4433",
".q c #332922",
"eE c #4c4438",
"cf c #625344",
".z c #3c2e24",
"bX c #4c4235",
"dv c #8a7f7d",
".K c #302720",
"d0 c #4d4739",
"eb c #504836",
"a4 c #3d332e",
"d6 c #51483a",
"dc c #92806c",
"cO c #92816e",
"#f c #383127",
"a1 c #413a2f",
"bj c #474133",
"bE c #484033",
"#A c #2b271d",
"#V c #2d281f",
"ag c #302721",
"aE c #332c26",
"bZ c #595041",
"cC c #514c3c",
"ch c #554e40",
"dd c #8f7d6a",
".X c #3a3227",
"cP c #948371",
"cY c #544e3a",
"c4 c #91806c",
"c. c #534c3d",
"cN c #59503c",
"dl c #887d7c",
"bR c #4f4837",
"c5 c #93826f",
"cs c #584f40",
"eH c #322921",
"#Q c #332c24",
"ab c #372d26",
"aW c #433d31",
"be c #4c4638",
"by c #4d4738",
"#6 c #806f60",
"#u c #332f23",
"ay c #3a322a",
"## c #3e362b",
"bm c #5c4c40",
".R c #3b3429",
"aI c #504846",
"dD c #443936",
"#D c #4d433f",
".n c #403b2f",
".h c #261c10",
"bT c #2e251c",
".H c #3e392e",
".i c #1b180d",
"dT c #464035",
"#q c #1f1913",
"#M c #201715",
"bu c #241e18",
"bb c #271f19",
"aS c #272019",
"#b c #31281e",
"bg c #382d24",
"aY c #3a2f26",
".7 c #231c15",
"#9 c #231c18",
".N c #251c17",
"au c #252019",
"#w c #2d231b",
"#S c #30231e",
"bA c #332921",
"ad c #332922",
"aA c #362e27",
"b. c #998774",
"bN c #221b14",
".j c #272417",
"cz c #5c4e41",
"cl c #1e1710",
"b6 c #1f1711",
".o c #322b24",
".0 c #4c4539",
"co c #1c1511",
"cJ c #1e1612",
"cG c #201814",
"c2 c #211813",
".T c #332720",
"b3 c #16100a",
"cb c #5a4b40",
".I c #302923",
"dL c #483d39",
"bK c #4c4137",
"dP c #2a2219",
"cV c #423732",
"ar c #978574",
"el c #291f19",
"dX c #292018",
"dG c #342a21",
"es c #251c15",
"d3 c #291f18",
"d9 c #2a1f19",
"ee c #2b201b",
".p c #302621",
".d c #222015",
".4 c #1c1710",
"eA c #231a13",
"da c #49403f",
".w c #211f14",
"#n c #2c241d",
".J c #2d241f",
"aP c #9f8c7a",
"du c #665c5a",
".A c #19120b",
"dy c #4e4139",
".c c #17140c",
"dk c #6f6564",
".B c #121009",
".b c #211a11",
".v c #15120b",
"#i c #433a36",
"eJ c #2b241f",
".u c #1f1910",
".C c #201c13",
"#J c #493e38",
"#Z c #847b79",
"eI c #2b221e",
"eK c #3d382c",
"bq c #8a7767",
"a5 c #443933",
"ak c #716967",
"cv c #958170",
"bH c #57493d",
"b0 c #211c16",
"cD c #1c1a12",
"ci c #1e1a14",
"cZ c #1d1913",
"bn c #665447",
"b9 c #1b1813",
"cM c #1d1a12",
"bQ c #1e1a13",
"#P c #12100b",
"aa c #13100d",
"aV c #18140f",
"bd c #1b1711",
"cr c #1b1913",
"bx c #1e1913",
"#t c #12110d",
"ax c #15120e",
"#. c #181511",
"#E c #443a39",
".Q c #18140f",
".1 c #322b26",
"#5 c #544741",
"do c #61524a",
"eB c #0e0c08",
"bU c #1d1813",
"#x c #050503",
"bB c #060603",
"aB c #060605",
"#T c #070505",
"aZ c #080704",
"#c c #080803",
"bh c #0a0906",
"dH c #221d1b",
"cc c #605146",
"dY c #040402",
"d4 c #050403",
"e. c #070605",
"ef c #0b0806",
"dQ c #0c0b08",
"em c #0d0a06",
"et c #0d0b07",
"dz c #37302d",
"#j c #413734",
"eC c #090805",
"#0 c #483f3d",
"cw c #927e6c",
"eD c #242019",
"aJ c #3f3533",
"a6 c #463a33",
"de c #7c6c61",
"cq c #000000",
"e# c #010000",
"ae c #010001",
"#O c #010101",
"a# c #010201",
"#y c #020000",
"bC c #020200",
"cL c #020201",
"#s c #020202",
"aw c #030101",
"aC c #030102",
"b8 c #030402",
"eg c #040200",
"aU c #040201",
"#d c #050402",
"cj c #050502",
".9 c #050503",
"en c #060301",
"c0 c #060401",
"eu c #060402",
".P c #070503",
"cE c #080502",
".V c #080604",
"cp c #080605",
"bw c #080704",
"bP c #090805",
".U c #0a0905",
"cK c #0b0806",
"#N c #0b0807",
"b7 c #0c0906",
"#r c #0c0a07",
"a. c #0c0a09",
"ck c #0e0b07",
"b1 c #0e0b08",
"av c #0e0b09",
".8 c #0e0c08",
"c1 c #0f0a07",
"b2 c #0f0b08",
"aT c #0f0c09",
"cF c #100b08",
"bc c #100d0a",
"bO c #100e09",
".O c #110d0a",
"bv c #110f0a",
"dR c #141110",
"#z c #14130e",
".3 c #161310",
"#U c #16140e",
"af c #17130f",
"aD c #181511",
"#e c #191711",
".W c #1a1510",
"a0 c #1b1812",
"bD c #1c1913",
"bi c #1e1b14",
"dZ c #1e1c15",
"d5 c #1f1d15",
"ea c #211e16",
".2 c #221d1a",
"eh c #221e16",
"eo c #221f17",
"bV c #231c17",
"ev c #231f18",
"dS c #27231d",
"aM c #2c2220",
"#m c #2d2622",
"bW c #312921",
"c8 c #322826",
"aL c #342d2a",
"c9 c #342d2b",
"d. c #352e2c",
"ao c #352e2d",
"di c #362e2d",
"aK c #37302d",
"dI c #37302e",
"#l c #383230",
"dp c #383231",
"df c #39302f",
"dg c #393031",
"dJ c #39312f",
"#4 c #393131",
"an c #39322f",
"am c #393330",
"cT c #3a312c",
"dh c #3a3230",
"dA c #3a3330",
"#I c #3b3431",
"#H c #3c3432",
"ap c #3d3333",
"#k c #3d3433",
"ds c #3d3535",
"#3 c #3d3636",
"cU c #3e342e",
"#2 c #3e3534",
"dq c #3e3635",
"dr c #3f3735",
"#G c #403636",
"#1 c #403736",
"dB c #413738",
"dK c #423835",
"d# c #423838",
"#F c #423939",
"dC c #443938",
"cS c #473832",
"al c #483f3e",
"a7 c #4d3e36",
"dt c #4d4442",
"c7 c #4e413d",
"dj c #4f4746",
"aN c #50423e",
"bJ c #594b40",
"bI c #5c4d41",
"ce c #605144",
"cd c #675549",
"cy c #6d5c4f",
"aq c #706158",
"cR c #766459",
"a8 c #776458",
"bo c #7a6657",
"cx c #7c6958",
"bp c #8b7666",
"aO c #917f72",
"a9 c #9d8877",
"c6 c #a19183",
"cQ c #a5907e",
"QtQtQtQtQtQtQtQtQtQtQtQtQtQtQtQtQtQtQtQtQtQtQtQtQtQtQtQtQtQtQtQtQtQtQtQtQtQtQtQtQtQtQtQtQtQt",
"QtQtQt.#.a.b.c.d.eQtQtQtQtQtQtQtQtQtQt.f.g.h.i.j.k.lQtQtQtQtQtQtQtQtQt.m.n.o.p.q.rQtQtQtQtQt",
"QtQtQt.s.t.u.v.w.xQtQtQtQtQtQtQtQtQtQt.y.z.A.B.C.D.EQtQtQtQtQtQtQtQt.F.G.H.I.J.K.LQtQtQtQtQt",
"QtQtQt.M.N.O.P.Q.RQtQtQtQtQtQtQtQtQtQt.S.T.U.V.W.X.YQtQtQtQtQtQtQtQt.Z.0.1.2.3.4.5QtQtQtQtQt",
"QtQtQt.6.7.8.9#.##QtQtQtQtQtQtQtQtQtQt#a#b#c#d#e#f#gQtQtQtQtQtQtQt#h#i#j#k#l#m#n#oQtQtQtQtQt",
"QtQtQt#p#q#r#s#t#uQtQtQtQtQtQtQtQtQtQt#v#w#x#y#z#A#BQtQtQtQtQt#CQt#D#E#F#G#H#I#J#KQtQtQtQtQt",
"QtQtQt#L#M#N#O#P#QQtQtQtQtQtQtQtQtQtQt#R#S#T#O#U#V#WQtQtQtQtQt#X#Y#Z#0#1#2#3#4#5#6#7QtQtQtQt",
"QtQtQt#8#9a.a#aaabQtQtQtQtQtQtQtQtQtQtacad#TaeafagahQtQtQtQtQtaiajakalamanaoapaqarasQtQtQtQt",
"QtQtQtatauavawaxayQtQtQtQtQtQtQtQtQtQtazaAaBaCaDaEaFQtQtQtQtQtaGaHaIaJaKaLaMaNaOaPaQQtQtQtQt",
"QtQtQtaRaSaTaUaVaWQtQtQtQtQtQtQtQtQtQtaXaYaZaUa0a1a2QtQtQtQtQtQtQta3a4a5a6a7a8a9b.b#QtQtQtQt",
"QtQtQtbabbbc#dbdbeQtQtQtQtQtQtQtQtQtQtbfbgbh.PbibjbkQtQtQtQtQtQtQtQtblbmbnbobpbqbrbsQtQtQtQt",
"QtQtQtbtbubvbwbxbyQtQtQtQtQtQtQtQtQtQtbzbAbBbCbDbEbFQtQtQtQtQtQtQtQtQtbGbHbIbJbKbLQtQtQtQtQt",
"QtQtQtbMbNbObPbQbRQtQtQtQtQtQtQtQtQtQtbSbTbUbVbWbXbYQtQtQtQtQtQtQtQtQtbZb0b1b2b3b4QtQtQtQtQt",
"QtQtQtb5b6b7b8b9c.QtQtQtQtQtQtQtQtQtc#cacbcccdcecfcgQtQtQtQtQtQtQtQtQtchcicjckclcmQtQtQtQtQt",
"QtQtQtcncocpcqcrcsQtQtQtQtQtQtQtQtQtctcucvcwcxcyczcAcBQtQtQtQtQtQtQtQtcCcDcEcFcGcHQtQtQtQtQt",
"QtQtQtcIcJcKcLcMcNQtQtQtQtQtQtQtQtQtcOcPcQcRcScTcUcVcWcXQtQtQtQtQtQtQtcYcZc0c1c2c3QtQtQtQtQt",
"QtQtQtc3c2c1c0cZcYQtQtQtQtQtQtQtQtQtc4c5c6c7c8c9d.d#dadbQtQtQtQtQtQtQtcNcMcLcKcJcIQtQtQtQtQt",
"QtQtQtcHcGcFcEcDcCQtQtQtQtQtQtQtQtQtdcdddedfdgdhdidjdkdlQtQtQtQtQtQtQtcscrcqcpcocnQtQtQtQtQt",
"QtQtQtcmclckcjcichQtQtQtQtQtQtQtQtQtdmdndodpdqdrdsdtdudvQtQtQtQtQtQtQtc.b9b8b7b6b5QtQtQtQtQt",
"QtQtQtb4b3b2b1b0bZQtQtQtQtQtQtQtQtQtdwdxdydzdA#2dBdCdDdEQtQtQtQtQtQtQtbRbQbPbObNbMQtQtQtQtQt",
"QtQtQtbLbKbJbIbHbGQtQtQtQtQtQtQtQtQtQtdFdGdHdIdJdKdLdMdNQtQtQtQtQtQtQtbybxbwbvbubtQtQtQtQtQt",
"QtQtbsbrbqbpbobnbmblQtQtQtQtQtQtQtQtQtdOdPdQdRdSdTdUdVQtQtQtQtQtQtQtQtbebd#dbcbbbaQtQtQtQtQt",
"QtQtb#b.a9a8a7a6a5a4a3QtQtQtQtQtQtQtQtdWdXdYcqdZd0d1QtQtQtQtQtQtQtQtQtaWaVaUaTaSaRQtQtQtQtQt",
"QtQtaQaPaOaNaMaLaKaJaIaHaGQtQtQtQtQtQtd2d3d4cqd5d6d7QtQtQtQtQtQtQtQtQtayaxawavauatQtQtQtQtQt",
"QtQtasaraqapaoanamalakajaiQtQtQtQtQtQtd8d9e.e#eaebecQtQtQtQtQtQtQtQtQtabaaa#a.#9#8QtQtQtQtQt",
"QtQt#7#6#5#4#3#2#1#0#Z#Y#XQtQtQtQtQtQtedeeefegeheiejQtQtQtQtQtQtQtQtQt#Q#P#O#N#M#LQtQtQtQtQt",
"QtQtQt#K#J#I#H#G#F#E#DQt#CQtQtQtQtQtQtekelemeneoepeqQtQtQtQtQtQtQtQtQt#u#t#s#r#q#pQtQtQtQtQt",
"QtQtQt#o#n#m#l#k#j#i#hQtQtQtQtQtQtQtQtereseteuevewexQtQtQtQtQtQtQtQtQt###..9.8.7.6QtQtQtQtQt",
"QtQtQt.5.4.3.2.1.0.ZeyQtQtQtQtQtQtQtQtezeAeBeCeDeEeFQtQtQtQtQtQtQtQtQt.R.Q.P.O.N.MQtQtQtQtQt",
"QtQtQt.L.K.J.I.H.G.FQtQtQtQtQtQtQtQtQteGeHeIeJeKeLeMQtQtQtQtQtQtQtQtQt.x.w.v.u.t.sQtQtQtQtQt",
"QtQtQt.r.q.p.o.n.mQtQtQtQtQtQtQtQtQtQtQteNeOePeQeRQtQtQtQtQtQtQtQtQtQt.e.d.c.b.a.#QtQtQtQtQt",
"QtQtQtQtQtQtQtQtQtQtQtQtQtQtQtQtQtQtQtQtQtQtQtQtQtQtQtQtQtQtQtQtQtQtQtQtQtQtQtQtQtQtQtQtQtQt"};
